<svg xmlns="http://www.w3.org/2000/svg" width="56" height="56" viewBox="0 0 56 56" role="img" aria-label="Email">
  <defs>
    <filter id="sh" x="-30%" y="-30%" width="160%" height="170%">
      <feDropShadow dx="0" dy="2" stdDeviation="2.5" flood-color="#000000" flood-opacity="0.30"/>
    </filter>
  </defs>
  <rect x="4" y="4" width="48" height="48" rx="13" fill="#FFFFFF" stroke="#000000" stroke-opacity="0.12" stroke-width="1" filter="url(#sh)"/>
  <g transform="translate(-4.7,2.4) scale(0.3409)">
    <path fill="#4285f4" d="M58 108h14V74L52 59v43c0 3.32 2.69 6 6 6"/>
    <path fill="#34a853" d="M120 108h14c3.32 0 6-2.69 6-6V59l-20 15"/>
    <path fill="#fbbc04" d="M120 48v26l20-15v-8c0-7.42-8.47-11.65-14.4-7.2"/>
    <path fill="#ea4335" d="M72 74V48l24 18 24-18v26L96 92"/>
    <path fill="#c5221f" d="M52 51v8l20 15V48l-5.6-4.2c-5.94-4.45-14.4-.22-14.4 7.2"/>
  </g>
</svg>
