<svg xmlns="http://www.w3.org/2000/svg" width="56" height="56" viewBox="0 0 56 56" role="img" aria-label="LinkedIn">
  <defs>
    <filter id="sh" x="-30%" y="-30%" width="160%" height="170%">
      <feDropShadow dx="0" dy="2" stdDeviation="2.5" flood-color="#000000" flood-opacity="0.30"/>
    </filter>
  </defs>
  <rect x="4" y="4" width="48" height="48" rx="13" fill="#0A66C2" filter="url(#sh)"/>
  <g transform="translate(15.75,14) scale(0.0547)" fill="#FFFFFF">
    <path d="M100.28 448H7.4V148.9h92.88zM53.79 108.1C24.09 108.1 0 83.5 0 53.8a53.79 53.79 0 0 1 107.58 0c0 29.7-24.1 54.3-53.79 54.3zM447.9 448h-92.68V302.4c0-34.7-.7-79.2-48.29-79.2-48.29 0-55.69 37.7-55.69 76.7V448h-92.78V148.9h89.08v40.8h1.3c12.4-23.5 42.69-48.3 87.88-48.3 94 0 111.28 61.9 111.28 142.3V448z"/>
  </g>
</svg>
