<svg xmlns="http://www.w3.org/2000/svg" width="56" height="56" viewBox="0 0 56 56" role="img" aria-label="Telegram">
  <defs>
    <filter id="sh" x="-30%" y="-30%" width="160%" height="170%">
      <feDropShadow dx="0" dy="2" stdDeviation="2.5" flood-color="#000000" flood-opacity="0.30"/>
    </filter>
  </defs>
  <rect x="4" y="4" width="48" height="48" rx="13" fill="#229ED9" filter="url(#sh)"/>
  <g transform="translate(14,13) scale(0.0625)" fill="#FFFFFF">
    <path d="M446.7 98.6l-67.6 318.8c-5.1 22.5-18.4 28.1-37.3 17.5l-103-75.9-49.7 47.8c-5.5 5.5-10.1 10.1-20.7 10.1l7.4-104.9 190.9-172.5c8.3-7.4-1.8-11.5-12.9-4.1L117.8 284 16.2 252.2c-22.1-6.9-22.5-22.1 4.6-32.7L418.2 66.4c18.4-6.9 34.5 4.1 28.5 32.2z"/>
  </g>
</svg>
